<?xml version="1.0" encoding="utf-8"?>
<!-- Generator: Adobe Illustrator 27.5.0, SVG Export Plug-In . SVG Version: 6.00 Build 0)  -->
<svg version="1.1" id="Layer_1" xmlns="http://www.w3.org/2000/svg" xmlns:xlink="http://www.w3.org/1999/xlink" x="0px" y="0px"
	 viewBox="0 0 164 50" style="enable-background:new 0 0 164 50;" xml:space="preserve">
<style type="text/css">
	.st0{fill:#2CB1BC;}
	.st1{fill:#FFFFFF;}
</style>
<g>
	<path class="st0" d="M62.9,12v7.5c0,1.2-0.3,2.1-0.9,2.7c-0.6,0.6-1.4,0.9-2.4,0.9c-1.1,0-1.9-0.3-2.5-1c-0.6-0.7-1-1.6-1-2.8h2.4
		c0,0.5,0.1,0.8,0.3,1c0.2,0.2,0.4,0.4,0.7,0.4c0.3,0,0.5-0.1,0.7-0.3c0.2-0.2,0.2-0.5,0.2-0.9V12H62.9z"/>
	<path class="st0" d="M66.4,22.6c-0.6-0.4-1.1-0.9-1.5-1.6s-0.5-1.5-0.5-2.4c0-0.9,0.2-1.7,0.5-2.4c0.4-0.7,0.9-1.2,1.5-1.6
		c0.6-0.4,1.3-0.5,2.1-0.5c0.8,0,1.5,0.2,2.1,0.5c0.6,0.4,1.1,0.9,1.5,1.6c0.4,0.7,0.5,1.5,0.5,2.4c0,0.9-0.2,1.7-0.5,2.4
		c-0.4,0.7-0.9,1.2-1.5,1.6c-0.6,0.4-1.3,0.5-2.1,0.5S67,22.9,66.4,22.6z M69.7,20.2c0.3-0.4,0.5-0.9,0.5-1.6S70,17.4,69.7,17
		s-0.7-0.6-1.2-0.6c-0.5,0-0.9,0.2-1.2,0.6c-0.3,0.4-0.5,0.9-0.5,1.6c0,0.7,0.2,1.2,0.5,1.6c0.3,0.4,0.7,0.6,1.2,0.6
		S69.3,20.6,69.7,20.2z"/>
	<path class="st0" d="M77.4,14.5c0.4-0.3,0.9-0.4,1.5-0.4c0.7,0,1.3,0.2,1.8,0.5c0.5,0.4,1,0.9,1.3,1.6c0.3,0.7,0.5,1.5,0.5,2.4
		c0,0.9-0.2,1.7-0.5,2.4c-0.3,0.7-0.7,1.2-1.3,1.6c-0.5,0.4-1.1,0.6-1.8,0.6c-0.6,0-1.1-0.1-1.5-0.4c-0.4-0.2-0.7-0.6-1-1V23h-2.4
		V11.4h2.4v4.1C76.6,15.1,76.9,14.8,77.4,14.5z M79.4,17c-0.3-0.4-0.8-0.6-1.2-0.6c-0.5,0-0.9,0.2-1.2,0.6c-0.3,0.4-0.5,0.9-0.5,1.6
		c0,0.7,0.2,1.2,0.5,1.6s0.7,0.6,1.2,0.6c0.5,0,0.9-0.2,1.2-0.6c0.3-0.4,0.5-0.9,0.5-1.6C79.9,17.9,79.7,17.4,79.4,17z"/>
	<path class="st0" d="M58.7,37c-0.8-0.5-1.4-1.2-1.9-2c-0.5-0.9-0.7-1.8-0.7-2.9c0-1.1,0.2-2,0.7-2.9c0.5-0.9,1.1-1.5,1.9-2
		c0.8-0.5,1.6-0.7,2.6-0.7s1.8,0.2,2.6,0.7s1.4,1.1,1.9,2c0.5,0.9,0.7,1.8,0.7,2.9c0,1.1-0.2,2-0.7,2.9s-1.1,1.5-1.9,2
		c-0.8,0.5-1.6,0.7-2.6,0.7S59.5,37.5,58.7,37z M63.3,34.4c0.5-0.6,0.7-1.4,0.7-2.3c0-1-0.2-1.7-0.7-2.3c-0.5-0.6-1.1-0.9-1.9-0.9
		c-0.8,0-1.5,0.3-1.9,0.9c-0.5,0.6-0.7,1.4-0.7,2.3c0,1,0.2,1.7,0.7,2.3c0.5,0.6,1.1,0.9,1.9,0.9C62.1,35.3,62.8,35,63.3,34.4z"/>
	<path class="st0" d="M71.3,29.2c0.4-0.3,0.9-0.4,1.4-0.4v2.8h-0.7c-0.6,0-1.1,0.1-1.4,0.4s-0.5,0.8-0.5,1.5v4.1h-2.4v-8.7h2.4v1.5
		C70.5,29.9,70.9,29.5,71.3,29.2z"/>
	<path class="st0" d="M73.9,30.9c0.3-0.7,0.8-1.2,1.4-1.6c0.6-0.4,1.3-0.5,2.1-0.5c1,0,1.8,0.3,2.5,0.9c0.7,0.6,1.1,1.4,1.3,2.4
		h-2.6c-0.2-0.7-0.6-1-1.3-1c-0.4,0-0.8,0.2-1.1,0.6c-0.3,0.4-0.4,0.9-0.4,1.6s0.1,1.3,0.4,1.6s0.6,0.6,1.1,0.6c0.6,0,1.1-0.3,1.3-1
		h2.6c-0.2,1-0.7,1.8-1.3,2.4s-1.5,0.9-2.5,0.9c-0.8,0-1.5-0.2-2.1-0.5c-0.6-0.4-1.1-0.9-1.4-1.6s-0.5-1.5-0.5-2.4
		C73.4,32.3,73.6,31.5,73.9,30.9z"/>
	<path class="st0" d="M89.7,29.8c0.6,0.7,0.8,1.6,0.8,2.7v5.1h-2.4v-4.7c0-0.6-0.1-1-0.4-1.4C87.4,31.2,87,31,86.5,31
		c-0.5,0-0.8,0.2-1.1,0.5c-0.3,0.3-0.4,0.8-0.4,1.4v4.7h-2.4V26H85v4c0.2-0.4,0.6-0.7,1-0.9c0.4-0.2,0.9-0.3,1.4-0.3
		C88.4,28.8,89.1,29.1,89.7,29.8z"/>
	<path class="st0" d="M99.7,33.9h-5.5c0,0.5,0.2,1,0.5,1.2c0.3,0.3,0.6,0.4,1,0.4c0.6,0,1-0.3,1.3-0.8h2.6c-0.1,0.6-0.4,1.1-0.7,1.6
		c-0.3,0.5-0.8,0.8-1.3,1.1c-0.5,0.3-1.1,0.4-1.8,0.4c-0.8,0-1.5-0.2-2.1-0.5c-0.6-0.4-1.1-0.9-1.4-1.6s-0.5-1.5-0.5-2.4
		c0-0.9,0.2-1.7,0.5-2.4s0.8-1.2,1.4-1.6c0.6-0.4,1.3-0.5,2.1-0.5c0.8,0,1.5,0.2,2.1,0.5c0.6,0.4,1.1,0.9,1.4,1.5
		c0.3,0.7,0.5,1.4,0.5,2.3C99.7,33.4,99.7,33.6,99.7,33.9z M97.2,32.4c0-0.5-0.1-0.8-0.4-1.1c-0.3-0.3-0.6-0.4-1.1-0.4
		c-0.4,0-0.8,0.1-1,0.4c-0.3,0.3-0.5,0.6-0.5,1.1H97.2z"/>
	<path class="st0" d="M102.4,37.3c-0.5-0.3-1-0.6-1.3-1.1c-0.3-0.5-0.5-1-0.5-1.5h2.4c0,0.3,0.2,0.5,0.4,0.7
		c0.2,0.2,0.5,0.3,0.8,0.3c0.3,0,0.5-0.1,0.7-0.2c0.2-0.1,0.2-0.3,0.2-0.5c0-0.2-0.1-0.4-0.4-0.6s-0.6-0.3-1.2-0.4
		c-0.6-0.1-1-0.3-1.4-0.5s-0.7-0.4-1-0.8s-0.4-0.8-0.4-1.4c0-0.5,0.1-1,0.4-1.4c0.3-0.4,0.6-0.7,1.1-1s1.1-0.4,1.7-0.4
		c1,0,1.8,0.3,2.4,0.8c0.6,0.5,0.9,1.3,1,2.2h-2.3c0-0.3-0.2-0.5-0.4-0.7c-0.2-0.2-0.5-0.3-0.8-0.3c-0.3,0-0.5,0.1-0.7,0.2
		s-0.2,0.3-0.2,0.5c0,0.3,0.1,0.4,0.4,0.6c0.2,0.1,0.6,0.3,1.1,0.4c0.6,0.2,1.1,0.3,1.4,0.5s0.7,0.4,1,0.8c0.3,0.4,0.4,0.8,0.4,1.4
		c0,0.5-0.1,1-0.4,1.4c-0.3,0.4-0.6,0.7-1.1,0.9c-0.5,0.2-1.1,0.3-1.7,0.3C103.5,37.7,102.9,37.6,102.4,37.3z"/>
	<path class="st0" d="M113.4,35.3v2.3h-1.2c-0.9,0-1.6-0.2-2.1-0.7c-0.5-0.5-0.7-1.2-0.7-2.3v-3.5h-1v-2.2h1v-2.1h2.4v2.1h1.6v2.2
		h-1.6v3.5c0,0.3,0.1,0.4,0.2,0.6s0.3,0.2,0.6,0.2H113.4z"/>
	<path class="st0" d="M118.3,29.2c0.4-0.3,0.9-0.4,1.4-0.4v2.8H119c-0.6,0-1.1,0.1-1.4,0.4s-0.5,0.8-0.5,1.5v4.1h-2.4v-8.7h2.4v1.5
		C117.5,29.9,117.8,29.5,118.3,29.2z"/>
	<path class="st0" d="M120.8,30.9c0.3-0.7,0.7-1.2,1.3-1.6c0.5-0.4,1.1-0.5,1.8-0.5c0.6,0,1.1,0.1,1.5,0.4c0.4,0.3,0.8,0.6,1,1v-1.2
		h2.4v8.7h-2.4v-1.2c-0.2,0.4-0.6,0.7-1,1c-0.4,0.3-0.9,0.4-1.5,0.4c-0.6,0-1.2-0.2-1.8-0.6s-1-0.9-1.3-1.6
		c-0.3-0.7-0.5-1.5-0.5-2.4S120.5,31.5,120.8,30.9z M125.8,31.7c-0.3-0.4-0.8-0.6-1.2-0.6s-0.9,0.2-1.2,0.6
		c-0.3,0.4-0.5,0.9-0.5,1.6c0,0.7,0.2,1.2,0.5,1.6s0.8,0.6,1.2,0.6s0.9-0.2,1.2-0.6s0.5-0.9,0.5-1.6S126.2,32,125.8,31.7z"/>
	<path class="st0" d="M135,35.3v2.3h-1.2c-0.9,0-1.6-0.2-2.1-0.7c-0.5-0.5-0.7-1.2-0.7-2.3v-3.5h-1v-2.2h1v-2.1h2.4v2.1h1.6v2.2
		h-1.6v3.5c0,0.3,0.1,0.4,0.2,0.6s0.3,0.2,0.6,0.2H135z"/>
	<path class="st0" d="M136.5,27.5c-0.3-0.3-0.4-0.6-0.4-1c0-0.4,0.1-0.8,0.4-1s0.6-0.4,1-0.4c0.4,0,0.8,0.1,1,0.4s0.4,0.6,0.4,1
		c0,0.4-0.1,0.8-0.4,1c-0.3,0.3-0.6,0.4-1,0.4C137.1,28,136.8,27.8,136.5,27.5z M138.8,28.9v8.7h-2.4v-8.7H138.8z"/>
	<path class="st0" d="M142.1,37.2c-0.6-0.4-1.1-0.9-1.5-1.6c-0.4-0.7-0.5-1.5-0.5-2.4c0-0.9,0.2-1.7,0.5-2.4
		c0.4-0.7,0.9-1.2,1.5-1.6c0.6-0.4,1.3-0.5,2.1-0.5s1.5,0.2,2.1,0.5c0.6,0.4,1.1,0.9,1.5,1.6c0.4,0.7,0.5,1.5,0.5,2.4
		s-0.2,1.7-0.5,2.4c-0.4,0.7-0.9,1.2-1.5,1.6s-1.3,0.5-2.1,0.5S142.7,37.6,142.1,37.2z M145.4,34.9c0.3-0.4,0.5-0.9,0.5-1.6
		c0-0.7-0.2-1.2-0.5-1.6c-0.3-0.4-0.7-0.6-1.2-0.6c-0.5,0-0.9,0.2-1.2,0.6c-0.3,0.4-0.5,0.9-0.5,1.6c0,0.7,0.2,1.2,0.5,1.6
		c0.3,0.4,0.7,0.6,1.2,0.6S145,35.2,145.4,34.9z"/>
	<path class="st0" d="M156.7,29.8c0.6,0.7,0.8,1.6,0.8,2.7v5.1h-2.4v-4.7c0-0.6-0.1-1-0.4-1.4c-0.3-0.3-0.6-0.5-1.1-0.5
		c-0.5,0-0.8,0.2-1.1,0.5c-0.3,0.3-0.4,0.8-0.4,1.4v4.7h-2.4v-8.7h2.4V30c0.2-0.4,0.6-0.7,1-0.9s0.9-0.3,1.4-0.3
		C155.4,28.8,156.2,29.1,156.7,29.8z"/>
</g>
<path class="st0" d="M10,0.1h30c5.5,0,10,4.5,10,10v30c0,5.5-4.5,10-10,10H10c-5.5,0-10-4.5-10-10v-30C0,4.5,4.5,0.1,10,0.1z"/>
<path class="st1" d="M14.2,14.3h4.1v13.4c0,1.2-0.3,2.3-0.8,3.3c-0.6,0.9-1.3,1.7-2.3,2.2c-1,0.5-2.2,0.8-3.4,0.8
	c-2.1,0-3.7-0.5-4.9-1.6C5.6,31.4,5,29.9,5,28h4.1c0,1,0.2,1.7,0.6,2.1c0.4,0.5,1,0.7,1.9,0.7c0.8,0,1.4-0.3,1.9-0.8
	c0.5-0.5,0.7-1.3,0.7-2.2V14.3z"/>
<g>
	<path class="st1" d="M27.3,31.1c-1.3-0.7-2.4-1.8-3.2-3.1c-0.8-1.3-1.2-2.8-1.2-4.4c0-1.6,0.4-3.1,1.2-4.4c0.8-1.3,1.8-2.3,3.2-3.1
		s2.8-1.1,4.4-1.1c1.6,0,3.1,0.4,4.4,1.1s2.4,1.8,3.1,3.1c0.8,1.3,1.1,2.8,1.1,4.4c0,1.6-0.4,3.1-1.2,4.4c-0.8,1.3-1.8,2.3-3.1,3.1
		c-1.3,0.7-2.8,1.1-4.4,1.1C30.1,32.2,28.6,31.8,27.3,31.1z M34.9,27.1c0.8-0.9,1.2-2.1,1.2-3.5c0-1.5-0.4-2.7-1.2-3.6
		c-0.8-0.9-1.9-1.3-3.2-1.3c-1.4,0-2.5,0.4-3.3,1.3c-0.8,0.9-1.2,2.1-1.2,3.6c0,1.5,0.4,2.7,1.2,3.6c0.8,0.9,1.9,1.3,3.3,1.3
		C33,28.5,34.1,28,34.9,27.1z"/>
</g>
</svg>
